<?xml version="1.0" encoding="utf-8"?>
<!-- Generator: Adobe Illustrator 24.3.0, SVG Export Plug-In . SVG Version: 6.00 Build 0)  -->
<svg version="1.1" id="Laag_1" xmlns="http://www.w3.org/2000/svg" xmlns:xlink="http://www.w3.org/1999/xlink" x="0px" y="0px"
	 viewBox="0 0 297 298" style="enable-background:new 0 0 297 298;" xml:space="preserve">
<style type="text/css">
	.st0{fill:none;}
	.st1{fill:#EDE7E0;}
</style>
<g id="Path_90">
	<path class="st0" d="M148.5,0C230.5,0,297,66.7,297,149c0.3,82-65.9,148.7-147.8,149c-0.2,0-0.4,0-0.7,0C66.5,298,0,231.3,0,149
		S66.5,0,148.5,0z"/>
	<path class="st1" d="M148.5,11C72.7,11,11,72.9,11,149s61.7,138,137.5,138c12.7,0,25.3-1.7,37.3-5.1C244.8,265.1,286,210.5,286,149
		C286,72.9,224.3,11,148.5,11 M148.5,0C230.5,0,297,66.7,297,149c0,68.2-45.7,125.7-108.2,143.5c-12.7,3.6-26.3,5.5-40.3,5.5
		C66.5,298,0,231.3,0,149S66.5,0,148.5,0z"/>
</g>
</svg>
