<?xml version="1.0" encoding="utf-8"?>
<!-- Generator: Adobe Illustrator 25.2.2, SVG Export Plug-In . SVG Version: 6.00 Build 0)  -->
<svg version="1.1" id="Layer_2_1_" xmlns="http://www.w3.org/2000/svg" xmlns:xlink="http://www.w3.org/1999/xlink" x="0px" y="0px"
	 viewBox="0 0 28.35 28.35" style="enable-background:new 0 0 28.35 28.35;" xml:space="preserve">
<style type="text/css">
	.st0{fill:#D5C1B8;}
	.st1{fill:#825550;}
</style>
<g>
	<g>
		<path class="st0" d="M6.57,17.75c0.8-0.02,1.6-0.05,2.4-0.07c0.03,0.37,0.05,0.73,0.08,1.1c-0.32-0.5-0.65-0.69-0.89-0.77
			c-0.19-0.07-0.32-0.06-1.36-0.22C6.7,17.77,6.62,17.76,6.57,17.75z"/>
		<path class="st0" d="M4.98,20.52l-0.34,3.67l3.06-0.34c-0.36-0.11-0.98-0.36-1.56-0.93C5.2,22.01,5.02,20.89,4.98,20.52z"/>
		<path class="st0" d="M7.89,16.4c0.53-0.56,1.08-1.13,1.63-1.7c1.98-2.03,3.96-3.95,5.93-5.75c1.52,1.36,3.04,2.72,4.56,4.09v0.27
			c-1.1-0.32-3.15-0.76-5.65-0.31C10.9,13.63,8.71,15.58,7.89,16.4z"/>
		<path class="st0" d="M16.2,7.93c0.31-0.34,0.62-0.67,0.93-1.01l2.25-1.57l0.7,0.34l1.49,1.29l1.14,1.09l0.8,0.87l0.1,0.37
			l-0.35,0.43l-0.03-0.11c-0.22-0.32-1.3-1.83-3.39-2.25C18.01,7,16.59,7.72,16.2,7.93z"/>
	</g>
	<g>
		<path class="st1" d="M11.7,19.72c0-0.14-0.11-0.26-0.25-0.27l-1.99-0.12l-0.09-1.8v-0.01v-0.01c-0.01-0.13-0.13-0.23-0.26-0.21
			l-2.7,0.28C6.35,17.59,6.3,17.64,6.3,17.7c0,0.07,0.06,0.12,0.12,0.12l2.46-0.03l0.09,1.78c0.01,0.12,0.11,0.23,0.23,0.24
			l1.95,0.16l-0.02,2.72l-1.16,0.8l-5.14,0.49l0.31-5.2c0-0.06-0.04-0.12-0.1-0.13c-0.07-0.01-0.13,0.04-0.14,0.1l-0.87,5.62
			c0,0.03-0.01,0.07,0,0.1c0.02,0.21,0.21,0.36,0.42,0.33h0.01l5.67-0.66h0.01c0.05-0.01,0.1-0.03,0.15-0.06l1.32-1l0.01-0.01
			c0.07-0.05,0.11-0.14,0.11-0.23L11.7,19.72z"/>
		<path class="st1" d="M20.65,13.02L20.65,13.02L15.68,8.4l-0.01-0.01c-0.15-0.14-0.39-0.14-0.54,0.02l-7.65,8.03
			c-0.04,0.05-0.04,0.12,0,0.17c0.05,0.05,0.12,0.05,0.17,0l7.76-7.39l4.4,4.1l-7.18,7.55c-0.05,0.05-0.05,0.12,0,0.17
			s0.13,0.05,0.18,0l7.84-7.46l0.02-0.02C20.81,13.41,20.8,13.17,20.65,13.02z"/>
		<path class="st1" d="M24.17,8.91l-0.03-0.04l0,0c-0.56-0.88-1.26-1.65-2.03-2.35S20.5,5.2,19.57,4.73L19.52,4.7
			c-0.1-0.05-0.21-0.04-0.3,0.03l0,0c-0.58,0.47-1.19,0.88-1.72,1.39c-0.53,0.51-1.01,1.07-1.43,1.66
			c-0.04,0.05-0.03,0.12,0.02,0.16c0.05,0.05,0.13,0.04,0.17-0.01c0.47-0.53,0.99-1.02,1.55-1.45c0.5-0.38,1.06-0.69,1.58-1.02
			c0.77,0.5,1.52,1.03,2.19,1.65c0.68,0.61,1.28,1.3,1.85,2.01c-0.3,0.51-0.58,1.03-0.93,1.5c-0.39,0.55-0.82,1.08-1.28,1.58
			c-0.04,0.04-0.04,0.11,0,0.16s0.12,0.06,0.17,0.01c0.52-0.45,1.02-0.94,1.48-1.46c0.47-0.51,0.86-1.1,1.29-1.65
			C24.23,9.15,24.24,9.01,24.17,8.91z"/>
	</g>
</g>
</svg>
