<?xml version="1.0" encoding="utf-8"?>
<!-- Generator: Adobe Illustrator 25.2.3, SVG Export Plug-In . SVG Version: 6.00 Build 0)  -->
<svg version="1.1" id="Layer_2_1_" xmlns="http://www.w3.org/2000/svg" xmlns:xlink="http://www.w3.org/1999/xlink" x="0px" y="0px"
	 viewBox="0 0 1391.8 1391.8" style="enable-background:new 0 0 1391.8 1391.8;" xml:space="preserve">
<style type="text/css">
	.st0{fill:#D5C1B8;}
	.st1{fill:#EDE6E0;}
</style>
<g>
	<g>
		<path class="st0" d="M490.6,459.6l101.2,20.1l85.4,2l88.9-2l86.9-24.6l69.7-26.5l25-10.3c1.5-2.5,2-5.4,3.4-8.3
			c-65.3-14.2-157.1-27-266.6-19.1c-96.7,6.9-176.8,27.5-235.2,47.6l1.5,4.9L490.6,459.6z"/>
		<path class="st0" d="M309.4,858.3c-19.6-37.8-22.1-74.6-21.6-98.2c-4.9,6.4-10.8,13.3-15.7,19.6l-61.9,59.4l-82.5,53.5l32.4,22.1
			l73.7,42.7l79.5,37.3l158.1,49.6l170.9,21.1c49.1-5.9,97.7-11.8,146.8-18.2c-66.8-6.4-234.2-27-369.3-94.3
			C368.8,929,332,901,309.4,858.3z"/>
		<path class="st0" d="M1053.3,538.2C1017.5,597.1,950.2,685,837.3,740c0,0-193,94.3-428.7,23.1c-1-0.5-24.1-7.4-53.5-15.7l-1-0.5
			c17.7,10.3,36.3,21.1,57,31.9c30.4,15.2,59.9,27.5,86.9,37.3L630,840.6l121.8-4.4l89.4-20.1l135.5-55.5l119.8-101.2
			C1082.3,619.2,1067.6,578.9,1053.3,538.2z"/>
	</g>
	<g>
		<path class="st1" d="M573.6,488.1c42.7,8.8,87.4,12.8,130.6,10.8c22.1-1.5,43.7-3.9,65.8-8.3c21.6-4.9,42.7-9.8,63.3-17.2
			c41.2-14.2,81-31.9,118.3-53.5c2-1.5,3.4-4.9,2-6.9c-1.5-2.5-4.4-3.9-7.4-2.5c-38.3,18.7-78.6,32.4-119.3,41.7
			c-41.2,9.3-83,14.7-124.7,17.2c-41.7,2.5-83.5,2-125.2-2.9c-41.7-4.9-83.5-14.2-123.2-28.5c-2.5-1-5.9,0.5-6.9,2.9
			c-1,2.5,0,5.9,2.9,7.4C489.1,466,530.4,478.7,573.6,488.1z"/>
		<path class="st1" d="M1271.8,844.6L1271.8,844.6c-32.4-25.5-62.9-54-88.9-86.4c-25.5-31.9-47.6-67.3-65.3-104.6
			s-30.4-76.6-39.3-117.4c-9.3-40.8-15.2-81.5-16.7-123.2l0,0c-0.5-4.9-2.9-10.8-8.3-13.3c-52.5-31.9-109-56-167.9-71.7
			c-29.5-7.9-59.9-13.7-89.9-16.7c-15.2-1.5-30.4-2.9-45.7-3.4c-7.9,0-15.2-1-23.1-0.5l-22.6,1c-15.2,0-30,2-45.7,2.9
			c-15.2,2.5-30.4,3.9-45.2,7.4c-30,4.9-59.4,13.3-88.4,22.6c-57.4,18.7-112,46.2-162.5,80l0,0v0.5c-3.4,2-4.9,4.9-4.9,8.8
			c-3.4,49.1-10.3,97.7-20.1,145.3c-9.3,47.6-22.1,95.3-38.8,141.9c-1,2.5,0.5,5.4,2.9,6.9c2.9,1,5.9,0,7.4-2.9
			c18.7-46.2,33.9-93.3,46.2-141.9c11.8-46.2,19.6-93.3,25.5-140.9c47.1-30.9,98.7-56,152.7-73.2c28-8.3,56.5-16.2,84.5-21.1
			c14.2-2.5,29-3.9,43.2-5.9c14.7-1,29-2.9,43.7-2.5h21.1c6.9,0,14.2,0.5,21.6,1c14.7,0.5,29,1.5,43.2,3.9c29,3.4,57,8.8,84.9,17.2
			c53,15.2,104.6,36.8,151.7,65.8c2.5,40.3,9.3,80.5,18.7,119.8c7.4,32.9,17.7,66.8,30.9,97.7c-1,0.5-1.5,1-1.5,1.5
			c-43.2,48.1-95.3,88.9-152.7,120.3c-57.4,31.4-120.3,52-185.1,60.9c-32.4,4.9-65.3,5.4-98.2,4.9c-32.9-1.5-65.8-4.9-98.2-11.8
			c-64.3-13.7-128.2-37.3-185.6-70.7c-2.5-1.5-5.9-1-7.9,1.5c-2,2.5,0,5.9,2.5,7.9c57,36.3,120.8,63.3,187.1,80
			c32.9,8.3,66.8,13.3,101.2,16.2c33.9,1.5,68.7,2.5,102.6-1.5c68.7-6.9,135.5-26,197.9-57c57.9-28.5,111-66.8,157.1-111.5
			c17.7,33.9,38.8,65.3,63.3,94.3s52.5,55,82.5,77.6c-35.8,27-73.2,51.6-112,73.2c-43.7,24.6-89.4,45.7-136,63.3
			c-93.8,33.9-193,54.5-292.7,57.4c-49.6,2-100.2-1-149.3-6.4c-49.6-6.9-98.2-17.7-146.3-30.9c-48.6-13.7-95.3-31.4-140.9-53
			c-39.3-18.7-77.1-39.3-112.9-63.3c54-32.9,100.2-77.6,134.5-130.1c1.5-2,1.5-5.4-1.5-7.4c-2.5-2-5.9-1.5-7.9,1
			c-41.2,54-95.7,96.7-156.1,123.7l0,0c-1.5,1-3.9,2.5-4.9,3.9c-3.9,4.9-2.5,12.8,3.4,17.7h0.5c41.7,30.9,86.4,57.4,132.1,81
			c46.2,23.6,94.3,42.7,143.9,57.9c49.6,15.7,100.2,26,151.7,33.9c51.6,6.4,103.6,9.3,155.7,7.9c104.1-3.4,207.2-25,303.9-62.4
			c48.1-18.7,94.8-41.7,139.5-67.8c44.2-26.5,86.9-56.5,125.7-89.9l0,0c1-0.5,1.5-1.5,1.5-2C1278.2,856.8,1277.2,849,1271.8,844.6z"
			/>
	</g>
</g>
</svg>
