<?xml version="1.0" encoding="utf-8"?>
<!-- Generator: Adobe Illustrator 25.2.3, SVG Export Plug-In . SVG Version: 6.00 Build 0)  -->
<svg version="1.1" id="Layer_2_1_" xmlns="http://www.w3.org/2000/svg" xmlns:xlink="http://www.w3.org/1999/xlink" x="0px" y="0px"
	 viewBox="0 0 1391.8 1391.8" style="enable-background:new 0 0 1391.8 1391.8;" xml:space="preserve">
<style type="text/css">
	.st0{fill:#D5C1B8;}
	.st1{fill:#EDE6E0;}
</style>
<g id="Layer_5">
	<g>
		<path class="st0" d="M208.6,720.7l12.3,450.2h299V989.7v-16.2c-35.8-18.2-75.1-40.7-115.9-70.2
			c-91.3-65.8-153.7-138.9-193.9-196.9C209.6,711.4,209.1,716.3,208.6,720.7z"/>
		<path class="st0" d="M810.5,1086.4v87.4h300.9v-48.6l-6.9,14.2c-48.1,2.9-110.5,1.5-181.6-14.2c-40.3-8.8-76.1-21.1-105.6-32.9
			C814.5,1090.4,812.5,1088.4,810.5,1086.4z"/>
		<path class="st0" d="M481.6,439.4L667.2,299l454.1,334.8l-4.9,4.4c-32.9-20.1-82.5-50.1-144.3-83.9
			c-126.2-67.7-191.5-102.1-277.4-117.8C649,428.1,575.9,420.7,481.6,439.4z"/>
	</g>
</g>
<g id="Layer_4">
	<g>
		<path class="st1" d="M85.9,733.5l560.6-487c10.8-9.3,27-9.3,37.8-0.5l564.6,476.2c2.5,2,2.9,5.9,0.5,8.8c-2,2.5-5.9,2.9-8.3,1
			l-594-438.4l37.8-0.5L93.3,743.3c-2.5,2-6.4,1.5-8.3-1C83,739.3,83.5,735.9,85.9,733.5z"/>
		<g>
			<path class="st1" d="M1145.8,679.5l-41.7-32.9c-2,47.1-3.9,93.8-4.4,140.9c-2,125.7-1.5,251.4-2,376.5
				c-92.3-0.5-185.1,0.5-277.4,1.5l-3.4-290.1v-0.5c0-11.8-9.3-21.1-21.1-21.1c-86.4-1-172.3-1-258.7,0c-10.8,0-20.1,8.8-21.1,20.1
				v1.5c-2.9,52.5-3.4,105.1-4.9,158.1c-1.5,43.2-1.5,86.4-1.5,129.6c-45.7-0.5-91.3-0.5-137,0.5c-47.1,0.5-93.8,1.5-140.9,2.5
				c-4.4-152.2-9.3-303.9-17.7-456.1c0-2.9-2.5-5.4-5.9-5.9c-3.4,0-6.4,2.5-6.4,5.9c-8.8,160.5-14.2,320.6-18.7,481.1
				c-0.5,13.3,9.8,24.1,23.1,24.5h1.5c55,2,110,2.5,164.5,2.9c55,1,110,1,164.5,0.5h0.5c15.2,0,28-12.8,27.5-28
				c-0.5-52.5-0.5-105.1-2-158.1c-1-45.7-2-90.8-3.9-136.5c71.2-1,142.4-1,214,0l-3.9,294.6l0,0c0,13.7,11.3,25.5,25,25.5h0.5
				c110,1,219.9,2.5,329.9,1.5h0.5c14.7,0,27-12.3,27-27c-0.5-134.5-0.5-269-2-404C1148.8,751.6,1146.8,715.8,1145.8,679.5z"/>
			<path class="st1" d="M1143.9,615.1c-3.4-77.1-7.9-154.2-13.3-231.7c0-2.9-2.5-5.4-5.4-5.4c-3.4,0-6.4,2.5-6.4,5.4
				c-4.9,67.3-8.8,134.5-12.3,201.8L1143.9,615.1z"/>
		</g>
	</g>
</g>
</svg>
