<?xml version="1.0" encoding="utf-8"?>
<!-- Generator: Adobe Illustrator 24.3.0, SVG Export Plug-In . SVG Version: 6.00 Build 0)  -->
<svg version="1.1" id="Laag_1" xmlns="http://www.w3.org/2000/svg" xmlns:xlink="http://www.w3.org/1999/xlink" x="0px" y="0px"
	 viewBox="0 0 150.6 117.2" style="enable-background:new 0 0 150.6 117.2;" xml:space="preserve">
<style type="text/css">
	.st0{fill:#835651;}
</style>
<path class="st0" d="M148.4,54.6c0.5,0.3,0.8,0.8,0.8,1.3s-0.2,1-0.5,1.6l-5.2,6.5c-0.3,0.3-0.8,0.6-1.4,0.7s-1.1,0-1.4-0.4
	l-3.9-3.1V113c0,1.2-0.4,2.2-1.2,3s-1.8,1.2-3,1.2h-44c-0.5,0-1-0.2-1.4-0.7s-0.7-0.9-0.7-1.4V81.7H69.7v33.5c0,0.5-0.2,1-0.7,1.4
	s-0.9,0.7-1.4,0.7h-44c-1.2,0-2.2-0.4-3-1.2s-1.2-1.8-1.2-3V61.3l-3.9,3.1c-0.3,0.3-0.8,0.5-1.4,0.4S13,64.5,12.7,64l-5.2-6.5
	C7.2,57,7,56.5,7,55.9s0.3-1,0.8-1.3L71.7,2.3c1.9-1.6,4.1-2.4,6.5-2.4s4.6,0.8,6.5,2.4l39.5,32.2V18.8c0-0.5,0.2-1,0.7-1.4
	s0.9-0.7,1.4-0.7h8.4c0.5,0,1,0.2,1.4,0.7s0.7,0.9,0.7,1.4V45L148.4,54.6z M124,104.7V50.8L79.2,14.2c-0.9-0.7-1.7-0.7-2.6,0
	L31.8,50.8v53.9H57V71.2c0-0.5,0.2-1,0.7-1.4s0.9-0.7,1.4-0.7h37.7c0.5,0,1,0.2,1.4,0.7s0.7,0.9,0.7,1.4v33.5H124z"/>
</svg>
