<?xml version="1.0" encoding="utf-8"?>
<!-- Generator: Adobe Illustrator 25.2.3, SVG Export Plug-In . SVG Version: 6.00 Build 0)  -->
<svg version="1.1" id="Layer_1" xmlns="http://www.w3.org/2000/svg" xmlns:xlink="http://www.w3.org/1999/xlink" x="0px" y="0px"
	 viewBox="0 0 1391.8 1391.8" style="enable-background:new 0 0 1391.8 1391.8;" xml:space="preserve">
<style type="text/css">
	.st0{fill:#D5C0B7;}
	.st1{fill:#80504B;}
</style>
<g>
	<path class="st0" d="M1136.9,435.8L1027.6,290l-164.2-31l-410.6,7.7l-117.1,53.6c-11,16.1-22.1,32.5-33.1,48.9
		c21.6-13.8,54.7-32.8,98.1-47.3c33.9-11.4,71.1-18.7,207.8-18.5c185.3,0.5,234.3,14.6,254.3,21.1c31,9.7,71.1,22.6,109.3,49.5
		c121.9,85.7,136.7,252.3,139.7,299.2c9.4-0.5,18.7-1.3,28.3-1.8L1136.9,435.8z"/>
	<path class="st0" d="M456.9,921C303.6,760.7,275.2,536.4,267.7,477.9c-1.1-7.1-1.6-13.3-2.1-17.4l-10.6,0l6.1,494.7l65.4,123.4
		l139.8,66.2l204.1,7l184.8,3.9l106-22.6c-4.9-8.3-10.1-16.4-14.9-24.7C897.6,1109.6,638.2,1110.3,456.9,921z"/>
	<path class="st0" d="M967.2,395.8c-4.1,1.6-8.3,3.4-12.3,5.2c6,13.5,1.3,28.7-10.2,35.7c-9.7,6.2-23.1,4.9-32.3-3.1l-8.8,0l1,11.9
		l28.1,29.1l39.5-5.2l17-25.3l-0.8-24.4L967.2,395.8z"/>
	<path class="st0" d="M494.9,705.5l-10.6,0l18.4,75.7l49.5,67.7l76,45l101.6,5.3l90.3-40.8l54.1-70.3l20-93.4L869.8,598l-91.1-87.2
		c-4.5,6.2-9.3,12-13.8,18.2c53.1,76,51.2,169.8,6.2,218.9C713.3,811,575.3,810.2,494.9,705.5z"/>
</g>
<g>
	<path class="st1" d="M1147.2,861.7l-0.8-273.1c-1.1-46.4,1.8-89-2.6-138.5c-3.1-24.5-9.3-49-21.8-71.9
		c-12.5-23.4-31.5-40.6-47.4-56.2c-35.9-34.6-83.1-54.4-130.4-62.3c-23.9-4.9-47.9-3.7-70-3.4l-68.5,0.8l-273.3,3.6
		c-44.3,0.7-93.2-0.5-137.5,19.3c-44.2,18.2-80.7,51.8-105.5,91.1c-1.9,3.1-1.3,7.6,2.1,9.7c3.4,2.3,7.8,1.6,10.1-1.8
		c24.8-36.7,59.6-66.3,100.3-81.4c40.6-16.6,85.6-14.1,131.2-13.2l272.1,3.5l68,0.5c23.4,0.2,45-0.8,65.8,4.1
		c42.1,8.1,82,26.1,111.1,55.4c15.9,16.2,30.7,30.7,39.5,48.1c9.4,17.5,14.3,37.5,16.9,58.3c3.4,41.1,0.8,89.6,1.3,134l-0.8,272.3
		c5.5,87.7-34.1,170.7-103.6,218.1c-34.4,23.5-75.7,38-117.6,42.9c-42.1,2-89.8,1-134.4,1.5l-270.9,1
		c-61.5-5.4-123.2-34.6-160.9-84.4c-19.2-24.4-32.5-53.6-39.5-84.1c-7.6-30-5.4-63.2-6.2-97.3l-7.5-403.3c0-3.7-3.1-7.1-7.1-6.7
		c-4.1,0-7.5,3.1-7.5,7.1L244.4,859l-0.5,50.5c-0.2,17.7,1.6,35.7,5.2,53.1c7.1,34.9,21.6,68.7,43.4,97.7
		c43.2,59.1,112.7,94,184.3,101.6l1.3,0l273.1,0.9c46.1-0.2,89.5,1.6,138-0.5c48.5-5.4,95.5-21.6,136.5-49.1
		C1109.2,1060.1,1153.9,955.3,1147.2,861.7z"/>
	<path class="st1" d="M908.4,424.9c-4.1-0.2-7.5,2.9-7.5,7c-1,20.8,13.5,41.6,33.9,46.9c20.3,5.8,43.8-3.9,53.6-22.9
		c9.9-19,4.9-43.5-11.4-57.2c-16.6-14-41.4-13.5-57.8-1.5c-3.1,2.4-4.1,7-1.8,10.1c2.4,3.2,7,4.1,10.1,1.8c12-8.4,29.6-8.1,39.8,1.3
		c10.7,8.9,14.1,26.5,7.1,38.5c-6.2,12.5-22.1,19.5-35.7,15.6c-14-3.4-24.2-17.4-23.4-31.8C915.4,428.8,912.5,425.1,908.4,424.9z"/>
	<path class="st1" d="M674.2,874.9c-89.6-1.9-169.4-80.8-177.3-174.7c-0.2-3.6-3.2-6.7-7-6.3c-4.1,0-7.5,3.1-7.5,7.1
		c-1.5,50.3,18,101.6,52.1,140.6c34.4,38.6,84.1,64.6,137,69.5c105.9,11,215.5-69.2,229.6-178.3C918,627.1,847.7,512.9,741.5,490
		c-51.3-11.8-105.9-4.2-151.3,20.5c-45.6,23.9-81,66.6-95.6,114.6l0,0.3c-1.3,3.6,0.5,7.3,4.1,8.8c3.7,1.5,8-0.3,9.4-3.9
		c35.7-88.5,139.8-132.3,225.5-108c42.7,12,79.1,40.7,102.5,77.9c23.1,37.5,32.8,83.5,25.7,126.3C849.4,813.5,763.2,882,674.2,874.9
		z"/>
</g>
</svg>
