<?xml version="1.0" encoding="utf-8"?>
<!-- Generator: Adobe Illustrator 25.2.2, SVG Export Plug-In . SVG Version: 6.00 Build 0)  -->
<svg version="1.1" id="Layer_2" xmlns="http://www.w3.org/2000/svg" xmlns:xlink="http://www.w3.org/1999/xlink" x="0px" y="0px"
	 viewBox="0 0 28.35 28.35" style="enable-background:new 0 0 28.35 28.35;" xml:space="preserve">
<style type="text/css">
	.st0{fill:#D5C1B8;}
	.st1{fill:#825550;}
</style>
<g>
	<g>
		<path class="st0" d="M17.32,11.51c-0.04-0.17-0.09-0.34-0.13-0.5l-0.05-4.63l3.83,3.82c-0.16-0.06-0.32-0.12-0.48-0.18
			c-0.08-0.04-1.01-0.56-2-0.07C17.52,10.41,17.33,11.41,17.32,11.51z"/>
		<path class="st0" d="M11.07,11.59l-0.05-0.17l-0.69,0.11v4.76l4.88,0.14l-0.04-0.05c-0.43-0.1-1.77-0.45-2.85-1.7
			C11.24,13.41,11.1,12.03,11.07,11.59z"/>
		<path class="st0" d="M10.59,21.42l-3.58-0.04l-1.37-0.2l-0.99-0.93l-0.34-1.29v-4.31l-0.1-1.43c0.13,0,0.26,0.01,0.39,0.01
			c0.19,1.92,0.77,3.34,1.21,4.2c0.4,0.79,0.83,1.63,1.72,2.44C8.66,20.88,9.9,21.26,10.59,21.42z"/>
	</g>
	<g>
		<path class="st1" d="M25.19,13.61l-7.88-7.83l-0.01-0.01c-0.07-0.07-0.17-0.11-0.27-0.11c-0.21,0-0.38,0.17-0.37,0.38l0.07,5
			l-6.53,0l-0.01,0c-0.17,0-0.3,0.14-0.3,0.31l0.05,5.1l0,0.01l0,0c0,0.14,0.12,0.25,0.25,0.24l5.13-0.13
			c0.07,0,0.12-0.05,0.12-0.12c0-0.07-0.05-0.13-0.12-0.13l-4.87-0.12l0.05-4.55l6.53,0c0.17,0,0.31-0.14,0.31-0.31l0.06-4.41
			l6.9,6.94l-6.44,6.48l-0.16-3.91l0-0.02v0c0-0.1-0.09-0.17-0.18-0.17l-1.28,0.06c-0.06,0-0.12,0.05-0.12,0.12
			c0,0.07,0.05,0.13,0.12,0.13l1.09,0.05l-0.19,4.62c0,0.1,0.03,0.2,0.11,0.28c0.15,0.15,0.38,0.15,0.53,0l0.01-0.01l7.39-7.34l0,0
			C25.36,14.03,25.35,13.77,25.19,13.61z"/>
		<path class="st1" d="M11.09,6.18L7.71,6.22C7.15,6.26,6.55,6.17,6.07,6.34C5.58,6.5,5.15,6.83,4.88,7.26
			C4.61,7.69,4.49,8.16,4.54,8.71l0.04,1.7l0.04,3.39c-0.02,1.13-0.01,2.26-0.04,3.39l-0.04,1.69c-0.04,0.54,0.05,1.02,0.32,1.45
			c0.27,0.42,0.7,0.74,1.2,0.88c0.48,0.15,1.08,0.07,1.64,0.11l3.39,0.05c0.07,0,0.12,0.06,0.12,0.13c0,0.07-0.06,0.12-0.12,0.12
			L7.7,21.66c-0.57-0.02-1.12,0.08-1.74-0.04c-0.6-0.12-1.17-0.47-1.54-0.98c-0.38-0.5-0.55-1.18-0.53-1.76l-0.04-1.7
			c-0.03-1.13-0.03-2.26-0.04-3.39l0.04-3.39l0.04-1.7C3.86,8.12,4.06,7.44,4.44,6.95c0.38-0.51,0.93-0.86,1.52-1
			C6.58,5.8,7.13,5.9,7.7,5.88l3.39,0.04c0.07,0,0.12,0.06,0.12,0.13C11.22,6.12,11.16,6.18,11.09,6.18z"/>
	</g>
</g>
</svg>
