<?xml version="1.0" encoding="utf-8"?>
<!-- Generator: Adobe Illustrator 25.2.3, SVG Export Plug-In . SVG Version: 6.00 Build 0)  -->
<svg version="1.1" id="Layer_2_1_" xmlns="http://www.w3.org/2000/svg" xmlns:xlink="http://www.w3.org/1999/xlink" x="0px" y="0px"
	 viewBox="0 0 1391.8 1391.8" style="enable-background:new 0 0 1391.8 1391.8;" xml:space="preserve">
<style type="text/css">
	.st0{fill:#D5C1B8;}
	.st1{fill:#EDE6E0;}
</style>
<g>
	<g>
		<path class="st0" d="M850.5,565.2c-2-8.3-4.4-16.7-6.4-24.6l-2.5-227.4l188.1,187.6c-7.9-2.9-15.7-5.9-23.6-8.8
			c-3.9-2-49.6-27.5-98.2-3.4C860.3,511.2,851,560.3,850.5,565.2z"/>
		<path class="st0" d="M543.6,569.1l-2.5-8.3l-33.9,5.4v233.7l239.6,6.9l-2-2.5c-21.1-4.9-86.9-22.1-139.9-83.5
			C551.9,658.5,545.1,590.7,543.6,569.1z"/>
		<path class="st0" d="M520,1051.8l-175.8-2l-67.3-9.8l-48.6-45.7L211.6,931V719.4l-4.9-70.2c6.4,0,12.8,0.5,19.2,0.5
			c9.3,94.3,37.8,164,59.4,206.2c19.6,38.8,40.8,80,84.5,119.8C425.2,1025.3,486.1,1043.9,520,1051.8z"/>
	</g>
	<g>
		<path class="st1" d="M1236.9,668.3L850,283.8l-0.5-0.5c-3.4-3.4-8.3-5.4-13.3-5.4c-10.3,0-18.7,8.3-18.2,18.7l3.4,245.5H500.9
			h-0.5c-8.3,0-14.7,6.9-14.7,15.2l2.5,250.4v0.5l0,0c0,6.9,5.9,12.3,12.3,11.8l251.9-6.4c3.4,0,5.9-2.5,5.9-5.9
			c0-3.4-2.5-6.4-5.9-6.4l-239.1-5.9l2.5-223.4h320.6c8.3,0,15.2-6.9,15.2-15.2l2.9-216.5l338.8,340.8L877,999.3l-7.9-192v-1l0,0
			c0-4.9-4.4-8.3-8.8-8.3l-62.9,2.9c-2.9,0-5.9,2.5-5.9,5.9c0,3.4,2.5,6.4,5.9,6.4l53.5,2.5l-9.3,226.9c0,4.9,1.5,9.8,5.4,13.7
			c7.4,7.4,18.7,7.4,26,0l0.5-0.5l362.9-360.4l0,0C1245.3,688.9,1244.8,676.2,1236.9,668.3z"/>
		<path class="st1" d="M544.6,303.5l-166,2c-27.5,2-57-2.5-80.5,5.9c-24.1,7.9-45.2,24.1-58.4,45.2c-13.3,21.1-19.2,44.2-16.7,71.2
			l2,83.5l2,166.5c-1,55.5-0.5,111-2,166.5l-2,83c-2,26.5,2.5,50.1,15.7,71.2c13.3,20.6,34.4,36.3,58.9,43.2
			c23.6,7.4,53,3.4,80.5,5.4l166.5,2.5c3.4,0,5.9,2.9,5.9,6.4s-2.9,5.9-5.9,5.9l-166.5,2c-28-1-55,3.9-85.4-2
			c-29.5-5.9-57.5-23.1-75.6-48.1c-18.7-24.6-27-57.9-26-86.4l-2-83.5c-1.5-55.5-1.5-111-2-166.5l2-166.5l2-83.5
			c-1.5-28.5,8.3-61.9,27-85.9c18.7-25,45.7-42.2,74.6-49.1c30.4-7.4,57.5-2.5,85.4-3.4l166.5,2c3.4,0,5.9,2.9,5.9,6.4
			C550.9,300.5,548,303.5,544.6,303.5z"/>
	</g>
</g>
</svg>
