<?xml version="1.0" encoding="utf-8"?>
<!-- Generator: Adobe Illustrator 25.2.3, SVG Export Plug-In . SVG Version: 6.00 Build 0)  -->
<svg version="1.1" id="Layer_1" xmlns="http://www.w3.org/2000/svg" xmlns:xlink="http://www.w3.org/1999/xlink" x="0px" y="0px"
	 viewBox="0 0 1391.8 1391.8" style="enable-background:new 0 0 1391.8 1391.8;" xml:space="preserve">
<style type="text/css">
	.st0{fill:#D5C1B8;}
	.st1{fill:#825550;}
</style>
<g>
	<g>
		<path class="st0" d="M1183.3,696.9c-5.9,37.4-27.1,139.1-113.7,228.9c-77.3,80.2-165.1,107.5-202.6,116.9l6.4,25.6h272.2
			l65.7-75.3l10.4-281L1183.3,696.9z"/>
		<path class="st0" d="M196,583.1c-4.3,0.3-8.5,0.5-12.8,0.8l-3.6,416.8l77.2,64.7l287.4,3.2c7-8.6,14-17.3,21-25.9
			c-48.7-14.8-135.7-48.6-215.4-127.3C220.4,787.7,200.3,630.7,196,583.1z"/>
		<path class="st0" d="M1129.3,558.6c-84,45.8-286.7,139.8-509.7,79C494.3,603.4,291.9,501,299,395.3c1.2-18,8.3-32.6,14.7-42.8
			c-9.1-11.7-18.1-23.5-27.2-35.2l-103.3,54.8l16.5,136.2l417.2,315.9l151.5,14.9l373-273.3C1137.3,563.4,1133.3,561,1129.3,558.6z"
			/>
	</g>
	<path class="st1" d="M1140.8,568.8c-77,68.6-155.4,135.5-238.1,198c-42.5,30.2-81.3,63.2-134.9,83.6c-26,8.3-55.6,13.2-84.2,7.4
		c-28.7-4.7-54.1-19.2-76.1-31.5c-91.4-50.8-175.7-112-256.8-176.3c-40.6-32.1-80.2-65.7-119.4-98.5c-16.9-14.2-46.3-33.4-57.7-65.4
		c-6-14.4-8.2-32.7-7.6-45.9l-0.1-38.7l0-1.2l0-0.5c1.5-25,14.1-50.8,35.7-66.5c10.6-7.8,22.6-13.1,34.6-15.8
		c12.3-2.8,23.3-3.8,36.9-2.6l-2.7-0.2l630.2-1.9l157.6,0.2l39.4,0.1l19.7,0c7.3-0.3,17,0.5,24.8,2.2c33.3,6,64.1,30.9,76.2,63.3
		c6.4,14.9,8.1,35.3,7.4,48l-0.1,39.4l-0.2,78.7l-0.4,157.4l-0.4,157.4l-0.2,78.7l-0.1,40.3c-0.6,16.9-5,33.2-13.3,48.1
		c-16.3,30.1-49.1,49.7-82,52c-30.6,0.7-53.7-0.1-81-0.1l-157.6-1.2l-630.3-5.4l-0.4,0l-0.7,0c-25.2-2.5-49.5-13.9-65.7-34.5
		c-16.8-19.1-20.1-50.1-18.2-69.2l1.8-127.8l3.5-255.6c0.1-4.7,4-8.5,8.7-8.5c4.7,0.1,8.4,3.8,8.5,8.5l3.5,255.3l1.8,127.6
		c-5,41.8,22.2,70.8,58.5,73.1l-1.1,0l630.7-5.4l157.7-1.2l76.6-0.6c19.6-1.6,36.9-12.5,45.8-29c4.5-8,7.1-17.9,7.4-27.2l-0.1-38.5
		l-0.2-78.9l-0.4-157.8l-0.4-157.8l-0.2-78.9l-0.1-39.5c0.4-13.4-0.6-19.8-4.2-29.3c-6.7-17-21.7-29.3-40.3-32.8
		c-5-0.9-8.5-1.3-14.4-1.1l-19.7,0l-39.4,0.1L901.3,363l-630.8-1.9l-2.3-0.1l-0.4,0c-5.7-0.6-14.2-0.1-20.8,1.5
		c-6.9,1.5-12.9,4.3-17.9,7.9c-10,7.2-16.4,19.1-17.4,32.7l0.1-1.7l-0.1,38.5c-0.4,12.5,0.9,20.2,4.4,29.8
		c6.1,18.3,22,29.6,43.8,48.1c39.1,34,77.4,67.6,116.9,100.1c78.9,64.9,160.7,126.5,248.4,177.3c43.4,28.9,85.9,39.5,133.1,24.5
		c43.6-14.6,87-46.8,128.6-75c83.6-59,163.9-123.2,242.8-189c3.6-3,9-2.6,12.1,1C1144.7,560.4,1144.3,565.7,1140.8,568.8z"/>
</g>
</svg>
