<?xml version="1.0" encoding="utf-8"?>
<!-- Generator: Adobe Illustrator 25.2.3, SVG Export Plug-In . SVG Version: 6.00 Build 0)  -->
<svg version="1.1" id="Layer_2_1_" xmlns="http://www.w3.org/2000/svg" xmlns:xlink="http://www.w3.org/1999/xlink" x="0px" y="0px"
	 viewBox="0 0 1391.8 1391.8" style="enable-background:new 0 0 1391.8 1391.8;" xml:space="preserve">
<style type="text/css">
	.st0{fill:#D5C1B8;}
	.st1{fill:#EDE6E0;}
</style>
<g>
	<path class="st0" d="M316.6,489.4c3.3-2.5,6.7-5,10-7.5c-9.4,39.3-33.3,161.8,27.9,294.2c10.4,22.4,90.1,188.1,264.2,234.3
		c172.3,45.7,372.2-42.7,484.4-223.7c2.3,8.4,4.6,16.7,6.8,25.1l-51.5,124.8L970.5,1041l-114.2,64.7l-117,41L569.1,1134
		l-189.6-114.9L261.3,813.3L252.7,638l37.6-106.3C299.1,517.5,307.9,503.5,316.6,489.4z"/>
	<path class="st1" d="M341.6,473.9c-66.8,85.3-92,199-68.4,302.8c22.2,104,81.8,200.3,166,264.1c83.5,64.6,192.6,92.6,296.4,78.5
		c104.3-13.9,202.2-68.1,266.9-150.8c65.1-82,100.5-188,94.4-292.6c-5.8-104.8-55.7-204.9-133.4-276.8
		c-147.7-156.5-424.7-147.9-571.9,14.5c-2.6,2.9-7.1,3.1-10,0.5c-2.8-2.6-2.9-7.1-0.5-10c72.4-85.5,181.6-138.9,294.9-146
		c113.6-8.5,230.4,35.1,312.6,114.2c84.9,75.7,140.8,186,148.1,301.1c7.5,114.8-29.6,231.7-102.3,320.8
		c-71.6,90.4-180.1,149.3-293.8,163.5c-113.9,15.3-233.8-17.4-322.5-89.9c-89.2-71.2-150.9-174.6-171-286
		c-21.1-111.8,11-231.3,83.4-316.6c2.4-3,6.9-3.5,9.9-1C343.4,466.5,343.9,470.9,341.6,473.9z"/>
	<g>
		<g>
			<path class="st0" d="M691.4,638.1c-1.1-4.9-2.6-9.7-3.7-14.3l-1.4-132.5l109.6,109.3c-4.6-1.7-9.2-3.4-13.7-5.1
				c-2.3-1.1-28.9-16-57.2-2C697.1,606.6,691.6,635.2,691.4,638.1z"/>
			<path class="st0" d="M512.6,640.4l-1.4-4.9l-19.7,3.1v136.2l139.6,4l-1.1-1.4c-12.3-2.9-50.6-12.9-81.5-48.6
				C517.4,692.5,513.4,653,512.6,640.4z"/>
		</g>
		<g>
			<path class="st1" d="M916.5,698.2l-225.4-224l-0.3-0.3c-2-2-4.9-3.1-7.7-3.1c-6,0-10.9,4.9-10.6,10.9l2,143H487.7h-0.3
				c-4.9,0-8.6,4-8.6,8.9l1.4,145.9v0.3l0,0c0,4,3.4,7.2,7.2,6.9l146.8-3.7c2,0,3.4-1.4,3.4-3.4s-1.4-3.7-3.4-3.7l-139.3-3.4
				l1.4-130.2h186.8c4.9,0,8.9-4,8.9-8.9l1.7-126.2L891,705.6L706.8,891l-4.6-111.9v-0.6l0,0c0-2.9-2.6-4.9-5.1-4.9l-36.6,1.7
				c-1.7,0-3.4,1.4-3.4,3.4s1.4,3.7,3.4,3.7l31.2,1.4L686.3,916c0,2.9,0.9,5.7,3.1,8c4.3,4.3,10.9,4.3,15.2,0l0.3-0.3l211.4-210l0,0
				C921.4,710.2,921.1,702.8,916.5,698.2z"/>
		</g>
	</g>
</g>
</svg>
