<?xml version="1.0" encoding="utf-8"?>
<!-- Generator: Adobe Illustrator 25.2.3, SVG Export Plug-In . SVG Version: 6.00 Build 0)  -->
<svg version="1.1" id="Layer_3" xmlns="http://www.w3.org/2000/svg" xmlns:xlink="http://www.w3.org/1999/xlink" x="0px" y="0px"
	 viewBox="0 0 1391.8 1391.8" style="enable-background:new 0 0 1391.8 1391.8;" xml:space="preserve">
<style type="text/css">
	.st0{fill:#D5C1B8;}
	.st1{fill:#EDE6E0;}
</style>
<g>
	<g>
		<path class="st0" d="M832.2,655.6L812,592.4l-65-44.3h-56.2l14.1,19.7l3.5,32.5l-13.8,35.8c-8.5,4.6-17,9.3-25.5,13.9
			c-5.8,0.3-41.9,1.4-62.3-24.4c-4.5-5.7-7.5-11.7-9.4-17.4c-6,17.4-12,34.7-18,52.1l17.6,63.8l52.7,43.9l94.8,4.5l58.8-36.4
			L832.2,655.6z"/>
		<path class="st0" d="M300.9,624.9c6-27.4,24-82.9,90.5-138.8v-22.8l-50.1,32.5l-145,145.7l-35.1,72.9l10.5,36.4l155.4,174.3
			l212.5,113.3c14.9-4.4,29.9-8.8,44.8-13.2C380.9,933.1,270.8,762.2,300.9,624.9z"/>
		<path class="st0" d="M1185.2,615.2l-91.3-91.3l-48.3-33.4L992,455.4L916.5,415l-10.5,7c109.4,59,180.4,167.6,180.9,282.8
			c0.6,153.4-124.1,297-299.5,324.1c-6.1,4.8-12.3,9.7-18.4,14.5c49.5-10.4,98.9-20.8,148.4-31.2l122.1-65.9L1151,855l97.5-131.7
			v-31.6L1185.2,615.2z"/>
	</g>
	<g>
		<path class="st1" d="M631.1,639.6c-3.3-1.6-7.4-0.3-9.2,2.9c-1.9,3.4-0.7,7.7,2.7,9.6l0.3,0.2c28,15.6,69.9,7.6,86.8-24.1
			c7.9-15.6,10.2-32.1,5.7-49.8c-1.6-5.5-4.9-10.1-7.8-14.9c35,6.8,64.7,28.9,80.5,60c20.4,37.1,6.3,84.7-28.6,110.9
			c-34.1,27.4-84.5,28.5-121,1.9c-37-25.4-53.7-76.1-40.7-122.3l0.1-0.4c1-3.5-0.8-7.2-4.3-8.6c-3.7-1.4-7.8,0.4-9.2,4.1
			c-9.8,25.2-12.6,52.6-6.9,79.8c5.5,27.3,22,52.1,43.5,69.9c21.7,17.8,49.4,29.5,78.6,30c29.1,0.7,57.8-9.1,81.1-25.9
			c23.3-16.8,42.2-41,50.3-69.9c8.1-28.8,3.9-61.2-10.3-86.9c-14.2-25.9-34.6-45.4-61-58.9c-25.9-12.8-55.4-15.5-82.3-10.3l-0.8,0.2
			l-1.2,0.2c-3.4,0.7-6.5,2.9-8.2,6.3c-2.9,5.8-0.6,12.9,5.3,15.8c10,5,18.8,14.5,22.6,25.2c3.5,10.2,2.7,24.4-2.2,34.7
			C685.1,641.6,654.5,650.8,631.1,639.6z"/>
		<path class="st1" d="M1258.2,698.9L1258.2,698.9c-95.7-137.5-232.8-244.3-387.4-305.4c-3.6-1.4-7.6,0.3-9.1,3.8
			c-1.5,3.6,0.2,7.7,3.8,9.2c148.7,62.1,278.4,167.2,368.6,299.6c-51.4,94.3-126.6,174.9-217.6,231.4
			c-92.6,57.9-200.1,93.6-308.8,93.9c-108.6,1-216.6-31.6-307.2-91.3c-87.4-57.7-162.3-136.2-215.7-226
			c45.1-78.8,106.6-148.6,180.7-201.7c44.8-32.4,94.3-58,146.1-77.8c-25.2,21.2-47.8,45.7-64.9,74.3
			c-37.9,65.4-50.8,143.9-36.1,217.7c13.9,73.8,57.4,142.8,120.7,184.7c62.7,42.8,142.1,57.9,216.1,45.4
			c74-12.7,143.6-53,189.3-113.1c45.8-59.9,67.1-136.5,61.6-210.9c-2.6-37.3-13.7-74.1-31.8-107c-18.7-32.7-44.6-60.5-74-82.8
			c-58.7-44.8-131.9-69.6-205.1-69.2c-3.8,0-6.9,3-7,6.8c-0.1,3.9,2.9,7.1,6.8,7.2c70.3,1.9,138.1,29,192.5,71.8
			c55.4,42.2,90.7,106.2,93.5,175.1c3.7,68.2-17.3,138-59.7,191.2c-41.6,53.7-104.1,90-171.1,101.2s-137.9-3.1-193.9-41
			C491.8,848.6,453,787.5,440,720.9c-13.6-66.5-1.9-138.4,32.1-196.7c34.7-58.1,93-101.3,157.5-123.2c6.8-2.3,11.2-9.3,10-16.6
			c-1.4-8.1-9.1-13.6-17.2-12.2l-1,0.2c-98.6,16.1-193.7,54.3-276,111.7c-82.5,57.1-151.7,133.2-201.6,220.7
			c-3.3,5.9-3.6,13.4,0.1,19.7l0.4,0.6c58.6,99.2,140.4,183.2,236.9,245.4c96.6,62.1,212.1,95.5,327,93
			c115.3-1.8,227.6-40.9,323.2-102.3c96.3-61.2,175.5-148.8,227.5-249.9l0.1-0.3C1261,707.2,1260.8,702.6,1258.2,698.9z"/>
	</g>
</g>
</svg>
