<?xml version="1.0" encoding="utf-8"?>
<!-- Generator: Adobe Illustrator 24.3.0, SVG Export Plug-In . SVG Version: 6.00 Build 0)  -->
<svg version="1.1" id="Laag_1" xmlns="http://www.w3.org/2000/svg" xmlns:xlink="http://www.w3.org/1999/xlink" x="0px" y="0px"
	 viewBox="0 0 100.1 100.1" style="enable-background:new 0 0 100.1 100.1;" xml:space="preserve">
<style type="text/css">
	.st0{fill:#825551;}
</style>
<g>
	<path class="st0" d="M96.2,14.5c2.6,2.6,3.9,5.7,3.9,9.4s-1.3,6.8-3.9,9.4L34.6,95.1L5.5,100c-1.6,0.3-2.9-0.2-4.1-1.4
		s-1.6-2.5-1.4-4.1L5,65.4L66.9,3.9C69.5,1.3,72.6,0,76.2,0s6.8,1.3,9.4,3.9L96.2,14.5z M16.1,89.5l14.5-2.3l3.5-3.5v-8.2h-9.4V66
		h-8.2L13,69.5L10.6,84L16.1,89.5z M23.7,59h8v9.4h9.4v8l33-33.2L56.9,26L23.7,59z M90.1,27.1c0.9-0.9,1.4-2,1.4-3.3
		s-0.5-2.4-1.6-3.3L79.6,10c-0.9-0.9-2-1.4-3.3-1.4S73.8,9,72.9,10l-9.4,9.4l17.2,17.2L90.1,27.1z"/>
</g>
</svg>
