<?xml version="1.0" encoding="utf-8"?>
<!-- Generator: Adobe Illustrator 24.3.0, SVG Export Plug-In . SVG Version: 6.00 Build 0)  -->
<svg version="1.1" id="Laag_1" xmlns="http://www.w3.org/2000/svg" xmlns:xlink="http://www.w3.org/1999/xlink" x="0px" y="0px"
	 viewBox="0 0 134.3 134.1" style="enable-background:new 0 0 134.3 134.1;" xml:space="preserve">
<style type="text/css">
	.st0{fill:#835651;}
</style>
<path class="st0" d="M125.2,6.1h-0.3c2.8,0.5,5.1,1.9,6.8,4.1s2.6,4.8,2.6,7.7c0,21.1-5.3,40.7-16,58.6
	C108,94.1,94.1,108,76.7,118.1c-18.1,10.6-37.8,16-58.9,16c-2.8,0-5.3-0.9-7.5-2.6s-3.5-4-4.1-6.8l-5.8-24.6
	C-0.3,97.3,0,94.6,1.3,92s3.4-4.4,6.2-5.5L33.9,75c2.4-1,5-1.2,7.6-0.5s4.8,2,6.5,3.9l8.4,10.5c14.1-7.5,25-18.3,32.7-32.5L78.6,48
	c-2.1-1.7-3.4-3.9-4.1-6.5s-0.4-5.1,0.7-7.6L86.5,7.5c1.2-2.8,3.1-4.8,5.6-6.2s5.2-1.6,8-0.9L125.2,6.1z M18.4,121.5
	c18.7,0,36-4.7,52.1-14.1c15.5-9.2,27.9-21.6,37.2-37.2c9.4-16.1,14.1-33.4,14.1-52.1L98,12.6L87,38.5l17.8,14.4
	C98.9,65.8,92,76.1,84.3,83.8s-18.1,14.6-31,20.7L38.9,86.7L13,97.7L18.4,121.5z"/>
</svg>
