<?xml version="1.0" encoding="utf-8"?>
<!-- Generator: Adobe Illustrator 25.2.2, SVG Export Plug-In . SVG Version: 6.00 Build 0)  -->
<svg version="1.1" id="Layer_2" xmlns="http://www.w3.org/2000/svg" xmlns:xlink="http://www.w3.org/1999/xlink" x="0px" y="0px"
	 viewBox="0 0 28.35 28.35" style="enable-background:new 0 0 28.35 28.35;" xml:space="preserve">
<style type="text/css">
	.st0{fill:#D5C1B8;}
	.st1{fill:#825550;}
</style>
<g id="Layer_3">
</g>
<g>
	<path class="st0" d="M21.58,11.95c-1.98,4.62-7.04,10.44-12.63,9.69c-1-0.13-2.99-0.6-5.16-2.74c0.38,1.77,0.76,3.53,1.15,5.3
		L7.77,24l3.66-0.91l2.54-1.16l3.05-2.02l2.17-2.51l2.08-3.22l1-2.93l0.54-3.83C22.66,8.53,22.36,10.15,21.58,11.95z"/>
	<path class="st1" d="M23.32,5.85c-0.01-0.17-0.13-0.31-0.3-0.35l-5.33-1.06l0,0l-0.01,0c-0.16-0.03-0.33,0.05-0.4,0.21l-2.15,4.82
		l0,0l-0.01,0.02c-0.04,0.1-0.02,0.21,0.06,0.29l2.32,2.32c0.06,0.06,0.16,0.07,0.23,0.01c0.07-0.06,0.08-0.17,0.02-0.24l-2.03-2.32
		l2.12-4.31l4.74,0.94c0.05,2.28-0.33,4.58-1.12,6.71c-0.83,2.23-2.14,4.24-3.79,5.93c-1.65,1.69-3.68,3.01-5.9,3.87
		c-2.12,0.84-4.4,1.31-6.68,1.37l-1.13-4.98l4.65-2.19l2.75,2.55l0.01,0.01c0.1,0.09,0.24,0.11,0.36,0.04
		c2.45-1.48,4.52-3.56,5.98-5.99c0.05-0.08,0.02-0.18-0.05-0.23c-0.08-0.05-0.18-0.03-0.23,0.05c-1.47,2.27-3.49,4.17-5.81,5.51
		l-2.68-2.65c-0.1-0.1-0.26-0.14-0.41-0.07l-0.01,0l-5.2,2.37c-0.17,0.08-0.27,0.27-0.23,0.46l1.33,5.59l0,0.01
		c0.04,0.16,0.18,0.28,0.36,0.29c2.5,0.02,4.96-0.45,7.29-1.33c2.33-0.87,4.49-2.24,6.26-4.01c1.79-1.75,3.11-3.95,3.96-6.3
		C23.12,10.84,23.46,8.33,23.32,5.85z"/>
</g>
</svg>
