<?xml version="1.0" encoding="utf-8"?>
<!-- Generator: Adobe Illustrator 24.3.0, SVG Export Plug-In . SVG Version: 6.00 Build 0)  -->
<svg version="1.1" id="Laag_1" xmlns="http://www.w3.org/2000/svg" xmlns:xlink="http://www.w3.org/1999/xlink" x="0px" y="0px"
	 viewBox="0 0 117.2 134" style="enable-background:new 0 0 117.2 134;" xml:space="preserve">
<style type="text/css">
	.st0{fill:#835651;}
</style>
<path class="st0" d="M82.2,79.5c6.3,0,12.1,1.6,17.5,4.7s9.7,7.4,12.8,12.8s4.7,11.3,4.7,17.5v6.8c0,3.5-1.2,6.5-3.7,8.9
	s-5.4,3.7-8.9,3.7h-92c-3.5,0-6.5-1.2-8.9-3.7S0,124.9,0,121.4v-6.8c0-6.3,1.6-12.1,4.7-17.5s7.4-9.7,12.8-12.8s11.3-4.7,17.5-4.7
	c2.3,0,5.2,0.6,8.9,1.8c2.4,0.7,4.4,1.2,6,1.6c2.6,0.5,5.5,0.8,8.6,0.8s6-0.3,8.6-0.8c1.6-0.3,3.6-0.9,6-1.6
	C76.9,80.1,79.9,79.5,82.2,79.5z M104.7,121.4v-6.8c0-6.1-2.2-11.4-6.7-15.8s-9.7-6.7-15.8-6.7c-1,0-2.8,0.3-5.2,1
	c-6.3,2.1-12.3,3.1-18.2,3.1s-12-1-18.5-3.1c-2.6-0.7-4.4-1-5.2-1c-6.1,0-11.4,2.2-15.8,6.7s-6.7,9.7-6.7,15.8v6.8H104.7z
	 M58.6,75.3c-6.8,0-13.1-1.7-18.8-5.1s-10.3-8-13.7-13.7S21,44.5,21,37.7s1.7-13.1,5.1-18.8s8-10.3,13.7-13.7s12-5.1,18.8-5.1
	s13.1,1.7,18.8,5.1s10.3,8,13.7,13.7s5.1,12,5.1,18.8s-1.7,13.1-5.1,18.8s-8,10.3-13.7,13.7S65.4,75.3,58.6,75.3z M58.6,12.5
	c-7,0-12.9,2.4-17.8,7.3s-7.3,10.8-7.3,17.8s2.4,12.9,7.3,17.8s10.8,7.3,17.8,7.3s12.9-2.4,17.8-7.3s7.3-10.8,7.3-17.8
	s-2.4-12.9-7.3-17.8S65.6,12.5,58.6,12.5z"/>
</svg>
