<?xml version="1.0" encoding="utf-8"?>
<!-- Generator: Adobe Illustrator 25.2.3, SVG Export Plug-In . SVG Version: 6.00 Build 0)  -->
<svg version="1.1" id="Layer_2_1_" xmlns="http://www.w3.org/2000/svg" xmlns:xlink="http://www.w3.org/1999/xlink" x="0px" y="0px"
	 viewBox="0 0 1391.8 1391.8" style="enable-background:new 0 0 1391.8 1391.8;" xml:space="preserve">
<style type="text/css">
	.st0{fill:#D5C1B8;}
	.st1{fill:#EDE6E0;}
</style>
<g>
	<g>
		<path class="st0" d="M295.1,504.7c16.2,224.8,32.9,450.2,49.1,675c190,0,380,0,570,0c-48.1-2-96.7-3.9-144.8-5.9
			c-92.3-19.6-154.2-55.5-190.5-80.5C373.1,950.4,325,680.9,304.4,563.1C299.5,538.1,296.5,517.4,295.1,504.7z"/>
		<path class="st0" d="M801.7,310.8L885.2,431l-241,3.9l44.2-13.3c10.3-1.5,43.7-7.9,70.7-37.8c25-27.5,29.9-57.9,31.4-68.2
			C794.3,314.2,797.8,312.2,801.7,310.8z"/>
		<path class="st0" d="M469.3,382.9c-1.5-3.4-3.4-6.9-4.9-10.3c23.1-35.3,45.7-70.7,68.7-106c75.1,0,150.7,0,225.8,0.5l1.5,10.8
			c-41.2,1-102.6,7.4-170.8,33.9c-27,10.3-48.6,22.1-51.1,23.1C508.1,351.5,485,369.2,469.3,382.9z"/>
	</g>
	<g>
		<path class="st1" d="M1023.6,489.5c-3.9-0.5-7.9,2-8.3,5.9l-112.9,655.4H374.1l-76.6-653.9v-1.5c-0.5-3.9-3.9-6.9-7.9-6.4
			c-3.9,0.5-6.9,3.9-6.9,7.9l47.6,679.5c1,11.8,10.8,21.1,22.6,21.1h0.5h568h0.5c11.3,0,21.1-8.3,22.6-19.6l84.9-679.5
			C1030,493.9,1027.5,490.4,1023.6,489.5z"/>
		<path class="st1" d="M1076.6,406.5l-166.4,2.9l0,0H892L815.4,297c-11.3-17.7-32.9-43.2-61.9-47.1c-6.9-1-14.2-2.5-20.6-2.5
			l-17.2,0.5l-34.4,1l-68.7,2.5l-34.4,1c-11.3,0-26,2-37.3,7.4c-25.5,10.8-39.8,34.9-49.6,54.5L458,374.6c-2,3.4-1,7.9,2.5,9.8
			s7.9,1,9.8-2.5l0.5-0.5l35.8-57.4c11.8-20.1,23.6-37.3,42.7-43.7c17.2-7.4,40.7-2.9,63.8-3.4l68.2,1.5l34.4,0.5l17.2,0.5
			c4.9,0.5,8.8,2,13.3,2.5c17.2,3.4,29,17.2,40.7,37.3l56,91.8h-10.3l-616.1,11.3c-3.9,0-6.9,2.9-6.9,6.9c0,3.9,2.9,7.4,6.9,7.4
			l860.1,15.7c0.5,0,0.5,0,1,0c12.8,0,23.1-10.8,22.6-23.6C1099.7,416.3,1089.4,406.5,1076.6,406.5z"/>
	</g>
</g>
</svg>
